<svg width="40" height="40" viewBox="0 0 40 40" fill="none" xmlns="http://www.w3.org/2000/svg">
<circle cx="20" cy="20" r="20" fill="#353535"/>
<path d="M17.3491 25.856C17.5824 25.623 17.8658 25.5065 18.1991 25.5065C18.5325 25.5065 18.8325 25.623 19.0992 25.856C19.6326 26.4219 19.6326 27.0043 19.0992 27.6035L18.0491 28.602C17.1157 29.534 16.0157 30 14.7489 30C13.4488 30 12.332 29.534 11.3986 28.602C10.4652 27.67 9.99854 26.5716 9.99854 25.3068C9.99854 24.0087 10.4652 22.8936 11.3986 21.9616L15.0989 18.267C16.2657 17.1353 17.4658 16.4945 18.6992 16.3448C19.9326 16.195 20.9993 16.5528 21.8994 17.4182C22.1661 17.6845 22.2994 17.9841 22.2994 18.3169C22.2994 18.6498 22.1661 18.9493 21.8994 19.2156C21.2994 19.7482 20.716 19.7482 20.1493 19.2156C19.3159 18.4168 18.2158 18.6997 16.849 20.0644L13.1488 23.7091C12.7154 24.1418 12.4987 24.6744 12.4987 25.3068C12.4987 25.9392 12.7154 26.4551 13.1488 26.8546C13.5821 27.2873 14.1072 27.5036 14.7239 27.5036C15.3406 27.5036 15.8656 27.2873 16.299 26.8546L17.3491 25.856ZM28.5999 11.5267C29.5333 12.4587 30 13.5571 30 14.822C30 16.1201 29.5333 17.2352 28.5999 18.1671L24.6496 22.1114C23.4162 23.3097 22.1661 23.9088 20.8993 23.9088C19.8659 23.9088 18.9325 23.4927 18.0991 22.6606C17.8658 22.4276 17.7491 22.1447 17.7491 21.8119C17.7491 21.479 17.8658 21.1794 18.0991 20.9132C18.3325 20.6802 18.6242 20.5637 18.9742 20.5637C19.3242 20.5637 19.6159 20.6802 19.8493 20.9132C20.6826 21.712 21.6994 21.5123 22.8995 20.314L26.8498 16.4197C27.3165 15.9537 27.5498 15.4211 27.5498 14.822C27.5498 14.1896 27.3165 13.6736 26.8498 13.2742C26.4497 12.8415 25.983 12.5835 25.4497 12.5003C24.9163 12.4171 24.4163 12.5919 23.9496 13.0246L22.6995 14.2728C22.4328 14.5058 22.1327 14.6223 21.7994 14.6223C21.4661 14.6223 21.1827 14.5058 20.9493 14.2728C20.3826 13.7069 20.3826 13.1244 20.9493 12.5253L22.1994 11.2771C23.0995 10.3784 24.1579 9.95401 25.3747 10.0039C26.5914 10.0539 27.6665 10.5615 28.5999 11.5267Z" fill="white"/>
</svg>
