<svg width="389" height="129" viewBox="0 0 389 129" fill="none" xmlns="http://www.w3.org/2000/svg">
<g filter="url(#filter0_d_2092_10474)">
<path d="M174.791 70.7543V48.0204H167.64V43.5211H187.118V48.0204H179.967V70.7543H174.791Z" fill="#5E5E5E"/>
<path d="M190.922 70.7543V43.5211H198.256L202.189 56.7445C202.554 57.9272 202.859 59.0856 203.103 60.2195C203.359 61.3535 203.554 62.4569 203.688 63.5299C203.908 62.5179 204.158 61.4815 204.438 60.4207C204.719 59.3477 205.06 58.1467 205.462 56.8177L209.468 43.5211H216.509V70.7543H212.12V47.9106C211.888 48.9226 211.638 49.9286 211.37 50.9284C211.102 51.9282 210.815 52.9281 210.51 53.9279L205.536 70.7543H201.786L196.958 53.9279C196.458 52.1721 196.098 50.8918 195.879 50.0871C195.671 49.2701 195.495 48.5447 195.348 47.9106V70.7543H190.922Z" fill="#5E5E5E"/>
<path d="M227.575 60.4573H234.506L231.031 48.2764L227.575 60.4573ZM219.747 70.7543L227.959 43.5211H234.36L242.554 70.7543H237.433L235.75 64.7919H226.349L224.612 70.7543H219.747Z" fill="#5E5E5E"/>
<path d="M245.681 70.7543V43.5211H251.15L258.978 57.2017C259.575 58.2625 260.13 59.3355 260.642 60.4207C261.154 61.5059 261.624 62.6033 262.05 63.7128C261.916 62.9081 261.819 62.0485 261.758 61.134C261.697 60.2073 261.666 59.2197 261.666 58.1711V43.5211H266.422V70.7543H261.666L253.162 56.7079C252.698 55.9154 252.205 54.9643 251.68 53.8547C251.168 52.7452 250.638 51.5137 250.089 50.1602C250.211 50.904 250.296 51.7209 250.345 52.611C250.406 53.5011 250.437 54.5315 250.437 55.702V70.7543H245.681Z" fill="#5E5E5E"/>
<path d="M288.772 60.4573H295.703L292.228 48.2764L288.772 60.4573ZM280.944 70.7543L289.156 43.5211H295.557L303.751 70.7543H298.63L296.947 64.7919H287.546L285.809 70.7543H280.944Z" fill="#5E5E5E"/>
<path d="M306.951 60.7499V43.5211H312.073V60.9694C312.073 62.9934 312.481 64.4566 313.298 65.3589C314.115 66.2612 315.432 66.7123 317.249 66.7123C319.175 66.7123 320.547 66.2795 321.364 65.4138C322.193 64.5359 322.607 63.0544 322.607 60.9694V43.5211H327.582V61.573C327.582 64.67 326.686 67.0537 324.894 68.7242C323.113 70.3824 320.565 71.2116 317.249 71.2116C313.786 71.2116 311.201 70.352 309.494 68.6327C307.799 66.9013 306.951 64.2737 306.951 60.7499Z" fill="#5E5E5E"/>
<path d="M338.519 70.7543V48.0204H331.368V43.5211H350.847V48.0204H343.695V70.7543H338.519Z" fill="#5E5E5E"/>
<path d="M358.199 57.2017C358.199 60.2866 358.717 62.6277 359.754 64.2249C360.79 65.81 362.308 66.6026 364.308 66.6026C366.307 66.6026 367.825 65.81 368.862 64.2249C369.898 62.6277 370.416 60.2866 370.416 57.2017C370.416 54.0925 369.898 51.7331 368.862 50.1237C367.825 48.5142 366.307 47.7094 364.308 47.7094C362.308 47.7094 360.79 48.5142 359.754 50.1237C358.717 51.7331 358.199 54.0925 358.199 57.2017ZM353.005 57.2017C353.005 52.8 354.005 49.3677 356.004 46.9047C358.004 44.4295 360.772 43.1919 364.308 43.1919C367.844 43.1919 370.612 44.4295 372.611 46.9047C374.623 49.3677 375.629 52.8 375.629 57.2017C375.629 61.579 374.623 65.0114 372.611 67.4988C370.599 69.974 367.832 71.2116 364.308 71.2116C360.796 71.2116 358.034 69.974 356.023 67.4988C354.011 65.0114 353.005 61.579 353.005 57.2017Z" fill="#5E5E5E"/>
</g>
<g filter="url(#filter1_d_2092_10474)">
<path d="M154.162 60.4616H161.094L157.619 48.2807L154.162 60.4616ZM146.334 70.7586L154.546 43.5254H160.948L169.141 70.7586H164.02L162.338 64.7962H152.937L151.199 70.7586H146.334Z" fill="#E41F26"/>
</g>
<path d="M93.3976 85.9668H0L105 107.198L93.3976 85.9668Z" fill="#5E5E5E"/>
<path d="M0 85.9668L116.914 129L105 107.198L0 85.9668Z" fill="#727270"/>
<path d="M49.3208 83.5913L99.1138 0L35.5158 83.5913H49.3208Z" fill="#AA2320"/>
<path d="M99.1138 0L1.71753 83.5913H35.5158L99.1138 0Z" fill="#E41F26"/>
<path d="M74.9213 45.5015L119.764 128.807L82.0618 33.3709L74.9213 45.5015Z" fill="#5E5E5E"/>
<path d="M119.764 128.807L99.5798 3.6106L82.0618 33.3709L119.764 128.807Z" fill="#727270"/>
<g filter="url(#filter2_d_2092_10474)">
<path d="M182.912 92.6747H186.718L184.917 86.383H184.729L182.912 92.6747ZM180.108 97.5484L183.833 85.4783H185.862L189.571 97.5484H188.169L187.085 93.7913H182.594L181.527 97.5484H180.108Z" fill="#5E5E5E"/>
<path d="M195.572 86.603H194.316V96.3667H195.392C196.3 96.3667 197.017 96.3015 197.544 96.1711C198.076 96.0407 198.527 95.826 198.897 95.5272C199.402 95.1306 199.788 94.59 200.054 93.9054C200.326 93.2208 200.462 92.4275 200.462 91.5256C200.462 90.5639 200.328 89.7353 200.062 89.0398C199.796 88.3389 199.402 87.7875 198.88 87.3854C198.516 87.1029 198.098 86.9018 197.625 86.7823C197.153 86.6628 196.468 86.603 195.572 86.603ZM193.004 97.5484V85.4783H195.873C196.791 85.4783 197.541 85.5544 198.122 85.7065C198.709 85.8532 199.228 86.095 199.679 86.4319C200.353 86.9426 200.869 87.6353 201.228 88.5101C201.586 89.3794 201.766 90.3792 201.766 91.5093C201.766 93.5142 201.247 95.0219 200.209 96.0325C199.177 97.0431 197.631 97.5484 195.572 97.5484H193.004Z" fill="#5E5E5E"/>
<path d="M205.835 97.5484V85.4783H207.147V90.6372H213.211V85.4783H214.531V97.5484H213.211V91.8027H207.147V97.5484H205.835Z" fill="#5E5E5E"/>
<path d="M219.269 97.5484V85.4783H226.392V86.6193H220.597V90.6535H224.705V91.7701H220.597V96.3993H226.677V97.5484H219.269Z" fill="#5E5E5E"/>
<path d="M229.255 94.5248L230.518 94.1091C230.736 94.8807 231.108 95.4892 231.635 95.9347C232.162 96.3748 232.77 96.5949 233.46 96.5949C234.226 96.5949 234.838 96.4047 235.294 96.0244C235.751 95.6386 235.979 95.1279 235.979 94.4922C235.979 94.1173 235.911 93.7913 235.775 93.5142C235.639 93.2371 235.435 93.0062 235.164 92.8214C234.773 92.5606 234.096 92.2564 233.134 91.9086C232.792 91.7837 232.534 91.6886 232.36 91.6234C231.344 91.2268 230.627 90.7894 230.209 90.3112C229.796 89.8331 229.589 89.23 229.589 88.5019C229.589 87.5294 229.91 86.7497 230.551 86.1629C231.197 85.5761 232.056 85.2827 233.126 85.2827C234.061 85.2827 234.851 85.5354 235.498 86.0407C236.15 86.546 236.617 87.2767 236.9 88.233L235.693 88.5834C235.498 87.8717 235.169 87.3311 234.707 86.9616C234.245 86.5867 233.672 86.3993 232.988 86.3993C232.341 86.3993 231.825 86.5786 231.439 86.9372C231.059 87.2903 230.869 87.7685 230.869 88.3715C230.869 88.6541 230.931 88.9149 231.056 89.1539C231.187 89.393 231.388 89.6212 231.659 89.8385C231.925 90.045 232.542 90.3248 233.509 90.678C233.819 90.7867 234.058 90.8736 234.226 90.9388C235.373 91.3735 236.166 91.8489 236.606 92.365C237.046 92.8812 237.266 93.5631 237.266 94.4107C237.266 95.4158 236.924 96.2254 236.24 96.8394C235.56 97.4479 234.656 97.7522 233.526 97.7522C232.444 97.7522 231.545 97.4805 230.828 96.9372C230.111 96.3938 229.586 95.5897 229.255 94.5248Z" fill="#5E5E5E"/>
<path d="M241.246 97.5484V85.4783H242.599V97.5484H241.246Z" fill="#5E5E5E"/>
<path d="M250.124 97.5484L246.057 85.4783H247.426L250.678 95.2583H250.776L254.052 85.4783H255.405L251.298 97.5484H250.124Z" fill="#5E5E5E"/>
<path d="M258.774 97.5484V85.4783H265.897V86.6193H260.102V90.6535H264.21V91.7701H260.102V96.3993H266.182V97.5484H258.774Z" fill="#5E5E5E"/>
</g>
<g filter="url(#filter3_d_2092_10474)">
<path d="M277.482 94.5248L278.745 94.1091C278.963 94.8807 279.335 95.4892 279.862 95.9347C280.389 96.3748 280.997 96.5949 281.687 96.5949C282.453 96.5949 283.065 96.4047 283.521 96.0244C283.978 95.6386 284.206 95.1279 284.206 94.4922C284.206 94.1173 284.138 93.7913 284.002 93.5142C283.866 93.2371 283.662 93.0062 283.391 92.8214C283 92.5606 282.323 92.2564 281.361 91.9086C281.019 91.7837 280.761 91.6886 280.587 91.6234C279.571 91.2268 278.854 90.7894 278.436 90.3112C278.023 89.8331 277.816 89.23 277.816 88.5019C277.816 87.5294 278.137 86.7497 278.778 86.1629C279.424 85.5761 280.283 85.2827 281.353 85.2827C282.288 85.2827 283.078 85.5354 283.725 86.0407C284.377 86.546 284.844 87.2767 285.127 88.233L283.92 88.5834C283.725 87.8717 283.396 87.3311 282.934 86.9616C282.472 86.5867 281.899 86.3993 281.215 86.3993C280.568 86.3993 280.052 86.5786 279.666 86.9372C279.286 87.2903 279.096 87.7685 279.096 88.3715C279.096 88.6541 279.158 88.9149 279.283 89.1539C279.414 89.393 279.615 89.6212 279.886 89.8385C280.152 90.045 280.769 90.3248 281.736 90.678C282.046 90.7867 282.285 90.8736 282.453 90.9388C283.6 91.3735 284.393 91.8489 284.833 92.365C285.273 92.8812 285.493 93.5631 285.493 94.4107C285.493 95.4158 285.151 96.2254 284.467 96.8394C283.787 97.4479 282.883 97.7522 281.753 97.7522C280.671 97.7522 279.772 97.4805 279.055 96.9372C278.338 96.3938 277.813 95.5897 277.482 94.5248Z" fill="#5E5E5E"/>
<path d="M289.889 91.5093C289.889 93.1067 290.19 94.3509 290.793 95.242C291.402 96.133 292.241 96.5786 293.312 96.5786C294.382 96.5786 295.219 96.133 295.822 95.242C296.431 94.3509 296.735 93.1067 296.735 91.5093C296.735 89.9065 296.431 88.6595 295.822 87.7685C295.219 86.8774 294.382 86.4319 293.312 86.4319C292.241 86.4319 291.402 86.8774 290.793 87.7685C290.19 88.6595 289.889 89.9065 289.889 91.5093ZM288.536 91.5093C288.536 89.6131 288.968 88.1026 289.832 86.9779C290.701 85.8478 291.861 85.2827 293.312 85.2827C294.763 85.2827 295.92 85.8451 296.784 86.9698C297.653 88.089 298.088 89.6022 298.088 91.5093C298.088 93.4109 297.653 94.9268 296.784 96.057C295.92 97.1871 294.763 97.7522 293.312 97.7522C291.867 97.7522 290.709 97.1871 289.84 96.057C288.971 94.9268 288.536 93.4109 288.536 91.5093Z" fill="#5E5E5E"/>
<path d="M302.059 97.5484V85.4783H303.429V96.3993H308.816V97.5484H302.059Z" fill="#5E5E5E"/>
<path d="M311.549 85.4783H312.861V93.2615C312.861 93.8049 312.885 94.2151 312.934 94.4922C312.983 94.7638 313.064 95.0083 313.178 95.2257C313.401 95.6603 313.749 95.9972 314.222 96.2363C314.694 96.4753 315.249 96.5949 315.884 96.5949C316.531 96.5949 317.09 96.4753 317.563 96.2363C318.036 95.9972 318.384 95.6603 318.606 95.2257C318.72 94.9975 318.802 94.7421 318.851 94.4596C318.9 94.1716 318.924 93.6989 318.924 93.0415V85.4783H320.245V93.4734C320.245 94.8698 319.872 95.932 319.128 96.6601C318.389 97.3881 317.308 97.7522 315.884 97.7522C314.455 97.7522 313.374 97.3936 312.641 96.6764C311.913 95.9537 311.549 94.8861 311.549 93.4734V85.4783Z" fill="#5E5E5E"/>
<path d="M327.215 97.5484V86.6356H323.695V85.4783H332.105V86.6356H328.585V97.5484H327.215Z" fill="#5E5E5E"/>
<path d="M335.694 97.5484V85.4783H337.047V97.5484H335.694Z" fill="#5E5E5E"/>
<path d="M342.371 91.5093C342.371 93.1067 342.673 94.3509 343.276 95.242C343.885 96.133 344.724 96.5786 345.794 96.5786C346.865 96.5786 347.701 96.133 348.305 95.242C348.913 94.3509 349.217 93.1067 349.217 91.5093C349.217 89.9065 348.913 88.6595 348.305 87.7685C347.701 86.8774 346.865 86.4319 345.794 86.4319C344.724 86.4319 343.885 86.8774 343.276 87.7685C342.673 88.6595 342.371 89.9065 342.371 91.5093ZM341.018 91.5093C341.018 89.6131 341.45 88.1026 342.314 86.9779C343.184 85.8478 344.344 85.2827 345.794 85.2827C347.245 85.2827 348.402 85.8451 349.266 86.9698C350.136 88.089 350.57 89.6022 350.57 91.5093C350.57 93.4109 350.136 94.9268 349.266 96.057C348.402 97.1871 347.245 97.7522 345.794 97.7522C344.349 97.7522 343.192 97.1871 342.322 96.057C341.453 94.9268 341.018 93.4109 341.018 91.5093Z" fill="#5E5E5E"/>
<path d="M354.46 97.5484V85.4783H356.359L361.901 94.8915V85.4783H363.156V97.5484H362.121L355.707 86.8638V97.5484H354.46Z" fill="#5E5E5E"/>
<path d="M366.843 94.5248L368.106 94.1091C368.323 94.8807 368.695 95.4892 369.223 95.9347C369.75 96.3748 370.358 96.5949 371.048 96.5949C371.814 96.5949 372.425 96.4047 372.882 96.0244C373.338 95.6386 373.566 95.1279 373.566 94.4922C373.566 94.1173 373.499 93.7913 373.363 93.5142C373.227 93.2371 373.023 93.0062 372.751 92.8214C372.36 92.5606 371.684 92.2564 370.722 91.9086C370.38 91.7837 370.122 91.6886 369.948 91.6234C368.932 91.2268 368.215 90.7894 367.796 90.3112C367.383 89.8331 367.177 89.23 367.177 88.5019C367.177 87.5294 367.497 86.7497 368.139 86.1629C368.785 85.5761 369.644 85.2827 370.714 85.2827C371.648 85.2827 372.439 85.5354 373.086 86.0407C373.738 86.546 374.205 87.2767 374.487 88.233L373.281 88.5834C373.086 87.8717 372.757 87.3311 372.295 86.9616C371.833 86.5867 371.26 86.3993 370.575 86.3993C369.929 86.3993 369.413 86.5786 369.027 86.9372C368.647 87.2903 368.456 87.7685 368.456 88.3715C368.456 88.6541 368.519 88.9149 368.644 89.1539C368.774 89.393 368.975 89.6212 369.247 89.8385C369.513 90.045 370.13 90.3248 371.097 90.678C371.407 90.7867 371.646 90.8736 371.814 90.9388C372.961 91.3735 373.754 91.8489 374.194 92.365C374.634 92.8812 374.854 93.5631 374.854 94.4107C374.854 95.4158 374.512 96.2254 373.827 96.8394C373.148 97.4479 372.243 97.7522 371.113 97.7522C370.032 97.7522 369.133 97.4805 368.416 96.9372C367.698 96.3938 367.174 95.5897 366.843 94.5248Z" fill="#5E5E5E"/>
</g>
<defs>
<filter id="filter0_d_2092_10474" x="154.678" y="30.2307" width="233.912" height="53.9421" filterUnits="userSpaceOnUse" color-interpolation-filters="sRGB">
<feFlood flood-opacity="0" result="BackgroundImageFix"/>
<feColorMatrix in="SourceAlpha" type="matrix" values="0 0 0 0 0 0 0 0 0 0 0 0 0 0 0 0 0 0 127 0" result="hardAlpha"/>
<feOffset/>
<feGaussianBlur stdDeviation="6.48058"/>
<feComposite in2="hardAlpha" operator="out"/>
<feColorMatrix type="matrix" values="0 0 0 0 1 0 0 0 0 0.897059 0 0 0 0 0.883333 0 0 0 0.1 0"/>
<feBlend mode="normal" in2="BackgroundImageFix" result="effect1_dropShadow_2092_10474"/>
<feBlend mode="normal" in="SourceGraphic" in2="effect1_dropShadow_2092_10474" result="shape"/>
</filter>
<filter id="filter1_d_2092_10474" x="133.373" y="30.5642" width="48.7295" height="53.1555" filterUnits="userSpaceOnUse" color-interpolation-filters="sRGB">
<feFlood flood-opacity="0" result="BackgroundImageFix"/>
<feColorMatrix in="SourceAlpha" type="matrix" values="0 0 0 0 0 0 0 0 0 0 0 0 0 0 0 0 0 0 127 0" result="hardAlpha"/>
<feOffset/>
<feGaussianBlur stdDeviation="6.48058"/>
<feComposite in2="hardAlpha" operator="out"/>
<feColorMatrix type="matrix" values="0 0 0 0 1 0 0 0 0 0.897059 0 0 0 0 0.883333 0 0 0 0.1 0"/>
<feBlend mode="normal" in2="BackgroundImageFix" result="effect1_dropShadow_2092_10474"/>
<feBlend mode="normal" in="SourceGraphic" in2="effect1_dropShadow_2092_10474" result="shape"/>
</filter>
<filter id="filter2_d_2092_10474" x="174.333" y="79.5071" width="97.6248" height="24.0206" filterUnits="userSpaceOnUse" color-interpolation-filters="sRGB">
<feFlood flood-opacity="0" result="BackgroundImageFix"/>
<feColorMatrix in="SourceAlpha" type="matrix" values="0 0 0 0 0 0 0 0 0 0 0 0 0 0 0 0 0 0 127 0" result="hardAlpha"/>
<feOffset/>
<feGaussianBlur stdDeviation="2.88779"/>
<feComposite in2="hardAlpha" operator="out"/>
<feColorMatrix type="matrix" values="0 0 0 0 1 0 0 0 0 0.897059 0 0 0 0 0.883333 0 0 0 0.1 0"/>
<feBlend mode="normal" in2="BackgroundImageFix" result="effect1_dropShadow_2092_10474"/>
<feBlend mode="normal" in="SourceGraphic" in2="effect1_dropShadow_2092_10474" result="shape"/>
</filter>
<filter id="filter3_d_2092_10474" x="271.706" y="79.5071" width="108.923" height="24.0206" filterUnits="userSpaceOnUse" color-interpolation-filters="sRGB">
<feFlood flood-opacity="0" result="BackgroundImageFix"/>
<feColorMatrix in="SourceAlpha" type="matrix" values="0 0 0 0 0 0 0 0 0 0 0 0 0 0 0 0 0 0 127 0" result="hardAlpha"/>
<feOffset/>
<feGaussianBlur stdDeviation="2.88779"/>
<feComposite in2="hardAlpha" operator="out"/>
<feColorMatrix type="matrix" values="0 0 0 0 1 0 0 0 0 0.897059 0 0 0 0 0.883333 0 0 0 0.1 0"/>
<feBlend mode="normal" in2="BackgroundImageFix" result="effect1_dropShadow_2092_10474"/>
<feBlend mode="normal" in="SourceGraphic" in2="effect1_dropShadow_2092_10474" result="shape"/>
</filter>
</defs>
</svg>
