<svg width="180" height="62" viewBox="0 0 180 62" fill="none" xmlns="http://www.w3.org/2000/svg">
<path d="M83.7591 33.9051V23.0111H80.3322V20.8551H89.6662V23.0111H86.2394V33.9051H83.7591Z" fill="white"/>
<path d="M91.4892 33.9051V20.8551H95.0037L96.888 27.1917C97.0633 27.7584 97.2094 28.3135 97.3262 28.8569C97.4489 29.4003 97.5424 29.9291 97.6067 30.4432C97.7118 29.9583 97.8316 29.4616 97.966 28.9533C98.1004 28.4391 98.264 27.8636 98.4568 27.2267L100.376 20.8551H103.75V33.9051H101.647V22.9585C101.536 23.4435 101.416 23.9255 101.288 24.4046C101.159 24.8837 101.022 25.3629 100.876 25.842L98.4919 33.9051H96.6952L94.3814 25.842C94.1419 25.0006 93.9695 24.3871 93.8643 24.0015C93.765 23.61 93.6803 23.2623 93.6102 22.9585V33.9051H91.4892Z" fill="white"/>
<path d="M109.053 28.9708H112.375L110.709 23.1338L109.053 28.9708ZM105.302 33.9051L109.237 20.8551H112.304L116.231 33.9051H113.777L112.971 31.048H108.466L107.633 33.9051H105.302Z" fill="white"/>
<path d="M117.73 33.9051V20.8551H120.35L124.101 27.4108C124.388 27.9191 124.653 28.4333 124.899 28.9533C125.144 29.4733 125.369 29.9992 125.574 30.5309C125.509 30.1453 125.463 29.7333 125.433 29.2951C125.404 28.8511 125.39 28.3778 125.39 27.8753V20.8551H127.668V33.9051H125.39L121.314 27.1742C121.092 26.7944 120.855 26.3386 120.604 25.8069C120.359 25.2752 120.105 24.6851 119.842 24.0365C119.9 24.3929 119.941 24.7844 119.964 25.2109C119.994 25.6375 120.008 26.1312 120.008 26.6921V33.9051H117.73Z" fill="white"/>
<path d="M138.378 28.9708H141.7L140.035 23.1338L138.378 28.9708ZM134.627 33.9051L138.562 20.8551H141.63L145.556 33.9051H143.102L142.296 31.048H137.791L136.958 33.9051H134.627Z" fill="white"/>
<path d="M147.09 29.1111V20.8551H149.544V29.2162C149.544 30.1862 149.74 30.8873 150.131 31.3197C150.523 31.752 151.154 31.9682 152.024 31.9682C152.947 31.9682 153.605 31.7608 153.996 31.346C154.394 30.9253 154.592 30.2154 154.592 29.2162V20.8551H156.976V29.5055C156.976 30.9896 156.547 32.1318 155.688 32.9323C154.835 33.7269 153.614 34.1243 152.024 34.1243C150.365 34.1243 149.126 33.7123 148.308 32.8885C147.496 32.0588 147.09 30.7997 147.09 29.1111Z" fill="white"/>
<path d="M162.217 33.9051V23.0111H158.79V20.8551H168.124V23.0111H164.698V33.9051H162.217Z" fill="white"/>
<path d="M171.648 27.4108C171.648 28.889 171.896 30.0109 172.393 30.7763C172.889 31.5359 173.617 31.9156 174.575 31.9156C175.533 31.9156 176.261 31.5359 176.757 30.7763C177.254 30.0109 177.502 28.889 177.502 27.4108C177.502 25.9209 177.254 24.7903 176.757 24.019C176.261 23.2477 175.533 22.8621 174.575 22.8621C173.617 22.8621 172.889 23.2477 172.393 24.019C171.896 24.7903 171.648 25.9209 171.648 27.4108ZM169.159 27.4108C169.159 25.3015 169.638 23.6567 170.596 22.4765C171.554 21.2904 172.88 20.6973 174.575 20.6973C176.269 20.6973 177.596 21.2904 178.554 22.4765C179.518 23.6567 180 25.3015 180 27.4108C180 29.5084 179.518 31.1532 178.554 32.3451C177.59 33.5312 176.263 34.1243 174.575 34.1243C172.892 34.1243 171.569 33.5312 170.605 32.3451C169.641 31.1532 169.159 29.5084 169.159 27.4108Z" fill="white"/>
<g filter="url(#filter0_d_2111_6922)">
<path d="M73.874 28.9728H77.1956L75.5304 23.1358L73.874 28.9728ZM70.1228 33.9071L74.058 20.8571H77.1255L81.0519 33.9071H78.5979L77.7916 31.05H73.2868L72.4541 33.9071H70.1228Z" fill="#E41F26"/>
</g>
<path d="M44.7558 41.1949H0L50.3154 51.3687L44.7558 41.1949Z" fill="#5E5E5E"/>
<path d="M0 41.1949L56.0246 61.8163L50.3154 51.3687L0 41.1949Z" fill="#727270"/>
<path d="M23.6343 40.0567L47.495 0L17.0191 40.0567H23.6343Z" fill="#AA2320"/>
<path d="M47.495 0L0.823029 40.0567H17.0191L47.495 0Z" fill="#E41F26"/>
<path d="M35.902 21.8039L57.3903 61.7237L39.3237 15.991L35.902 21.8039Z" fill="#5E5E5E"/>
<path d="M57.3903 61.7237L47.7183 1.72998L39.3237 15.991L57.3903 61.7237Z" fill="#727270"/>
<path d="M87.6508 44.4093H89.4746L88.6115 41.3943H88.5217L87.6508 44.4093ZM86.3073 46.7447L88.0921 40.9608H89.0646L90.8415 46.7447H90.1698L89.6504 44.9443H87.4985L86.9869 46.7447H86.3073Z" fill="white"/>
<path d="M93.7172 41.4997H93.1157V46.1784H93.6313C94.0661 46.1784 94.4097 46.1472 94.6623 46.0847C94.9174 46.0222 95.1335 45.9194 95.3106 45.7762C95.5527 45.5861 95.7376 45.327 95.8652 44.999C95.9953 44.6709 96.0604 44.2908 96.0604 43.8586C96.0604 43.3978 95.9966 43.0007 95.8691 42.6674C95.7415 42.3316 95.5527 42.0673 95.3028 41.8746C95.1283 41.7392 94.9279 41.6429 94.7013 41.5856C94.4748 41.5284 94.1468 41.4997 93.7172 41.4997ZM92.487 46.7447V40.9608H93.8617C94.3017 40.9608 94.661 40.9972 94.9396 41.0701C95.2208 41.1404 95.4694 41.2563 95.6855 41.4177C96.0084 41.6624 96.2557 41.9944 96.4275 42.4136C96.5994 42.8302 96.6853 43.3092 96.6853 43.8508C96.6853 44.8115 96.4367 45.534 95.9394 46.0183C95.4447 46.5026 94.704 46.7447 93.7172 46.7447H92.487Z" fill="white"/>
<path d="M98.6354 46.7447V40.9608H99.2641V43.4329H102.17V40.9608H102.802V46.7447H102.17V43.9914H99.2641V46.7447H98.6354Z" fill="white"/>
<path d="M105.073 46.7447V40.9608H108.486V41.5075H105.709V43.4407H107.678V43.9758H105.709V46.194H108.623V46.7447H105.073Z" fill="white"/>
<path d="M109.858 45.2958L110.464 45.0966C110.568 45.4663 110.746 45.7579 110.999 45.9714C111.251 46.1823 111.543 46.2878 111.873 46.2878C112.24 46.2878 112.533 46.1966 112.752 46.0144C112.971 45.8295 113.08 45.5848 113.08 45.2802C113.08 45.1005 113.048 44.9443 112.983 44.8115C112.917 44.6787 112.82 44.5681 112.69 44.4796C112.502 44.3546 112.178 44.2088 111.717 44.0422C111.553 43.9823 111.429 43.9367 111.346 43.9055C110.859 43.7154 110.516 43.5058 110.315 43.2767C110.117 43.0476 110.018 42.7586 110.018 42.4097C110.018 41.9436 110.172 41.57 110.479 41.2888C110.789 41.0076 111.2 40.867 111.713 40.867C112.161 40.867 112.54 40.9881 112.85 41.2302C113.162 41.4724 113.386 41.8226 113.521 42.2808L112.943 42.4487C112.85 42.1077 112.692 41.8486 112.471 41.6716C112.25 41.4919 111.975 41.4021 111.647 41.4021C111.337 41.4021 111.09 41.488 110.905 41.6598C110.723 41.8291 110.631 42.0582 110.631 42.3472C110.631 42.4826 110.661 42.6076 110.721 42.7221C110.784 42.8367 110.88 42.946 111.01 43.0502C111.138 43.1491 111.433 43.2832 111.897 43.4524C112.045 43.5045 112.16 43.5462 112.24 43.5774C112.79 43.7857 113.17 44.0135 113.381 44.2609C113.592 44.5082 113.697 44.835 113.697 45.2411C113.697 45.7228 113.533 46.1107 113.205 46.4049C112.88 46.6965 112.446 46.8423 111.905 46.8423C111.386 46.8423 110.956 46.7122 110.612 46.4518C110.268 46.1914 110.017 45.8061 109.858 45.2958Z" fill="white"/>
<path d="M115.604 46.7447V40.9608H116.253V46.7447H115.604Z" fill="white"/>
<path d="M119.859 46.7447L117.91 40.9608H118.566L120.124 45.6473H120.171L121.741 40.9608H122.389L120.421 46.7447H119.859Z" fill="white"/>
<path d="M124.003 46.7447V40.9608H127.417V41.5075H124.64V43.4407H126.608V43.9758H124.64V46.194H127.554V46.7447H124.003Z" fill="white"/>
<path d="M132.968 45.2958L133.574 45.0966C133.678 45.4663 133.856 45.7579 134.109 45.9714C134.361 46.1823 134.653 46.2878 134.984 46.2878C135.351 46.2878 135.644 46.1966 135.862 46.0144C136.081 45.8295 136.19 45.5848 136.19 45.2802C136.19 45.1005 136.158 44.9443 136.093 44.8115C136.028 44.6787 135.93 44.5681 135.8 44.4796C135.612 44.3546 135.288 44.2088 134.827 44.0422C134.663 43.9823 134.54 43.9367 134.456 43.9055C133.969 43.7154 133.626 43.5058 133.425 43.2767C133.227 43.0476 133.128 42.7586 133.128 42.4097C133.128 41.9436 133.282 41.57 133.589 41.2888C133.899 41.0076 134.311 40.867 134.823 40.867C135.271 40.867 135.65 40.9881 135.96 41.2302C136.272 41.4724 136.496 41.8226 136.632 42.2808L136.054 42.4487C135.96 42.1077 135.802 41.8486 135.581 41.6716C135.36 41.4919 135.085 41.4021 134.757 41.4021C134.447 41.4021 134.2 41.488 134.015 41.6598C133.833 41.8291 133.742 42.0582 133.742 42.3472C133.742 42.4826 133.772 42.6076 133.831 42.7221C133.894 42.8367 133.99 42.946 134.12 43.0502C134.248 43.1491 134.544 43.2832 135.007 43.4524C135.155 43.5045 135.27 43.5462 135.351 43.5774C135.9 43.7857 136.28 44.0135 136.491 44.2609C136.702 44.5082 136.807 44.835 136.807 45.2411C136.807 45.7228 136.643 46.1107 136.315 46.4049C135.99 46.6965 135.556 46.8423 135.015 46.8423C134.497 46.8423 134.066 46.7122 133.722 46.4518C133.378 46.1914 133.127 45.8061 132.968 45.2958Z" fill="white"/>
<path d="M138.914 43.8508C138.914 44.6162 139.058 45.2125 139.347 45.6395C139.639 46.0665 140.041 46.28 140.554 46.28C141.067 46.28 141.468 46.0665 141.757 45.6395C142.048 45.2125 142.194 44.6162 142.194 43.8508C142.194 43.0827 142.048 42.4852 141.757 42.0582C141.468 41.6312 141.067 41.4177 140.554 41.4177C140.041 41.4177 139.639 41.6312 139.347 42.0582C139.058 42.4852 138.914 43.0827 138.914 43.8508ZM138.265 43.8508C138.265 42.9421 138.472 42.2183 138.886 41.6794C139.303 41.1378 139.859 40.867 140.554 40.867C141.249 40.867 141.804 41.1365 142.218 41.6755C142.634 42.2118 142.843 42.9369 142.843 43.8508C142.843 44.7621 142.634 45.4885 142.218 46.03C141.804 46.5716 141.249 46.8423 140.554 46.8423C139.861 46.8423 139.307 46.5716 138.89 46.03C138.474 45.4885 138.265 44.7621 138.265 43.8508Z" fill="white"/>
<path d="M144.746 46.7447V40.9608H145.402V46.194H147.983V46.7447H144.746Z" fill="white"/>
<path d="M149.293 40.9608H149.922V44.6905C149.922 44.9508 149.933 45.1474 149.957 45.2802C149.98 45.4104 150.019 45.5275 150.074 45.6317C150.181 45.84 150.347 46.0014 150.574 46.1159C150.8 46.2305 151.066 46.2878 151.371 46.2878C151.68 46.2878 151.949 46.2305 152.175 46.1159C152.402 46.0014 152.568 45.84 152.675 45.6317C152.73 45.5223 152.769 45.3999 152.792 45.2646C152.816 45.1266 152.827 44.9 152.827 44.585V40.9608H153.46V44.792C153.46 45.4611 153.282 45.9701 152.925 46.319C152.571 46.6679 152.053 46.8423 151.371 46.8423C150.686 46.8423 150.168 46.6705 149.816 46.3268C149.467 45.9805 149.293 45.4689 149.293 44.792V40.9608Z" fill="white"/>
<path d="M156.8 46.7447V41.5153H155.113V40.9608H159.144V41.5153H157.456V46.7447H156.8Z" fill="white"/>
<path d="M160.863 46.7447V40.9608H161.512V46.7447H160.863Z" fill="white"/>
<path d="M164.063 43.8508C164.063 44.6162 164.208 45.2125 164.497 45.6395C164.788 46.0665 165.19 46.28 165.703 46.28C166.216 46.28 166.617 46.0665 166.906 45.6395C167.198 45.2125 167.344 44.6162 167.344 43.8508C167.344 43.0827 167.198 42.4852 166.906 42.0582C166.617 41.6312 166.216 41.4177 165.703 41.4177C165.19 41.4177 164.788 41.6312 164.497 42.0582C164.208 42.4852 164.063 43.0827 164.063 43.8508ZM163.415 43.8508C163.415 42.9421 163.622 42.2183 164.036 41.6794C164.452 41.1378 165.008 40.867 165.703 40.867C166.399 40.867 166.953 41.1365 167.367 41.6755C167.784 42.2118 167.992 42.9369 167.992 43.8508C167.992 44.7621 167.784 45.4885 167.367 46.03C166.953 46.5716 166.399 46.8423 165.703 46.8423C165.011 46.8423 164.456 46.5716 164.04 46.03C163.623 45.4885 163.415 44.7621 163.415 43.8508Z" fill="white"/>
<path d="M169.856 46.7447V40.9608H170.766L173.422 45.4715V40.9608H174.023V46.7447H173.527L170.454 41.6247V46.7447H169.856Z" fill="white"/>
<path d="M175.79 45.2958L176.395 45.0966C176.499 45.4663 176.678 45.7579 176.93 45.9714C177.183 46.1823 177.474 46.2878 177.805 46.2878C178.172 46.2878 178.465 46.1966 178.684 46.0144C178.902 45.8295 179.012 45.5848 179.012 45.2802C179.012 45.1005 178.979 44.9443 178.914 44.8115C178.849 44.6787 178.751 44.5681 178.621 44.4796C178.434 44.3546 178.11 44.2088 177.649 44.0422C177.485 43.9823 177.361 43.9367 177.278 43.9055C176.791 43.7154 176.447 43.5058 176.247 43.2767C176.049 43.0476 175.95 42.7586 175.95 42.4097C175.95 41.9436 176.103 41.57 176.411 41.2888C176.72 41.0076 177.132 40.867 177.645 40.867C178.093 40.867 178.471 40.9881 178.781 41.2302C179.094 41.4724 179.318 41.8226 179.453 42.2808L178.875 42.4487C178.781 42.1077 178.624 41.8486 178.402 41.6716C178.181 41.4919 177.906 41.4021 177.578 41.4021C177.269 41.4021 177.021 41.488 176.836 41.6598C176.654 41.8291 176.563 42.0582 176.563 42.3472C176.563 42.4826 176.593 42.6076 176.653 42.7221C176.715 42.8367 176.812 42.946 176.942 43.0502C177.069 43.1491 177.365 43.2832 177.828 43.4524C177.977 43.5045 178.091 43.5462 178.172 43.5774C178.721 43.7857 179.101 44.0135 179.312 44.2609C179.523 44.5082 179.629 44.835 179.629 45.2411C179.629 45.7228 179.465 46.1107 179.137 46.4049C178.811 46.6965 178.378 46.8423 177.836 46.8423C177.318 46.8423 176.887 46.7122 176.543 46.4518C176.2 46.1914 175.949 45.8061 175.79 45.2958Z" fill="white"/>
<defs>
<filter id="filter0_d_2111_6922" x="63.9119" y="14.6461" width="23.351" height="25.4719" filterUnits="userSpaceOnUse" color-interpolation-filters="sRGB">
<feFlood flood-opacity="0" result="BackgroundImageFix"/>
<feColorMatrix in="SourceAlpha" type="matrix" values="0 0 0 0 0 0 0 0 0 0 0 0 0 0 0 0 0 0 127 0" result="hardAlpha"/>
<feOffset/>
<feGaussianBlur stdDeviation="3.10547"/>
<feComposite in2="hardAlpha" operator="out"/>
<feColorMatrix type="matrix" values="0 0 0 0 1 0 0 0 0 0.897059 0 0 0 0 0.883333 0 0 0 0.1 0"/>
<feBlend mode="normal" in2="BackgroundImageFix" result="effect1_dropShadow_2111_6922"/>
<feBlend mode="normal" in="SourceGraphic" in2="effect1_dropShadow_2111_6922" result="shape"/>
</filter>
</defs>
</svg>
