<svg width="25" height="25" viewBox="0 0 25 25" fill="none" xmlns="http://www.w3.org/2000/svg">
<rect x="0.5" y="0.5" width="24" height="24" rx="12" fill="#353535" stroke="#353535"/>
<path fill-rule="evenodd" clip-rule="evenodd" d="M11.9733 8.135C10.9283 8.22222 9.84866 8.59615 8.85771 9.21403C7.70121 9.93513 6.52847 11.0959 5.73125 12.3085L5.625 12.4701L5.69715 12.5816C6.45982 13.7608 7.5251 14.8674 8.59808 15.5951C9.62379 16.2907 10.6004 16.678 11.7185 16.8325C12.043 16.8774 12.6792 16.8889 13.0423 16.8565C14.4569 16.7303 15.8007 16.1437 17.089 15.09C17.8673 14.4535 18.6924 13.5367 19.2507 12.688L19.375 12.4991L19.2601 12.3214C18.8616 11.7057 18.2099 10.9304 17.6403 10.3947C16.2525 9.08935 14.8058 8.35433 13.2356 8.15676C13.0054 8.12779 12.2215 8.11429 11.9733 8.135ZM13.1722 9.03037C14.3373 9.16751 15.4043 9.62373 16.4175 10.4182C16.9383 10.8264 17.481 11.3766 17.8936 11.9143C18.0593 12.1303 18.2884 12.4662 18.2884 12.4932C18.2884 12.5247 18.1717 12.7033 17.9945 12.9429C17.3437 13.8225 16.5683 14.5447 15.7058 15.0745C14.3129 15.9301 12.735 16.2038 11.1944 15.8572C9.79632 15.5427 8.44057 14.6722 7.36477 13.3983C7.06778 13.0466 6.71184 12.5565 6.71201 12.4994C6.71206 12.486 6.76188 12.4011 6.82274 12.3107C7.45964 11.3654 8.34731 10.5059 9.28534 9.92625C9.50773 9.78882 9.97244 9.54945 10.2017 9.45424C10.7934 9.20847 11.4165 9.05919 12.0685 9.00698C12.3011 8.98835 12.928 9.00165 13.1722 9.03037ZM12.2405 9.88046C11.3278 9.99453 10.5968 10.5129 10.1921 11.3333C9.9932 11.7362 9.89274 12.2567 9.93055 12.6879C10.0016 13.4981 10.3779 14.1784 11.0111 14.6413C11.4874 14.9894 12.1336 15.1734 12.6917 15.1197C13.0699 15.0834 13.3782 14.9933 13.6879 14.8287C14.8126 14.2309 15.3436 12.8925 14.9426 11.6655C14.837 11.3423 14.6564 11.0209 14.4393 10.7698C13.9553 10.2101 13.2979 9.89472 12.5689 9.87262C12.4513 9.86905 12.3035 9.87259 12.2405 9.88046Z" fill="white"/>
</svg>
