<svg width="50" height="50" viewBox="0 0 50 50" fill="none" xmlns="http://www.w3.org/2000/svg">
<path d="M0 15C0 6.71573 6.71573 0 15 0H35C43.2843 0 50 6.71573 50 15V35C50 43.2843 43.2843 50 35 50H15C6.71573 50 0 43.2843 0 35V15Z" fill="#E41F26"/>
<path fill-rule="evenodd" clip-rule="evenodd" d="M23.0892 13.6312C22.6717 13.7372 22.2982 13.9521 21.9842 14.2669C21.7471 14.5047 21.5735 14.7866 21.4468 15.1397L21.3471 15.4175L21.3342 16.1335L21.3213 16.8495L18.0076 16.8577L14.694 16.8658L14.4814 16.9353C13.7197 17.1842 13.2132 17.6636 12.9466 18.3881C12.851 18.6478 12.8262 19.2888 12.9008 19.5738C12.9686 19.833 13.19 20.2641 13.3468 20.4424C13.8378 21.0005 14.4276 21.2546 15.2329 21.255L15.62 21.2552V27.3428C15.62 33.9814 15.6157 33.802 15.7917 34.3939C16.0822 35.3707 16.783 36.2136 17.715 36.7072C17.9879 36.8517 18.3306 36.9788 18.7018 37.0733L18.9751 37.1429H25.002H31.0289L31.3022 37.0733C31.6734 36.9788 32.0161 36.8517 32.2889 36.7072C33.3562 36.142 34.0767 35.1732 34.317 33.9801C34.3591 33.7709 34.3658 33.0234 34.3749 27.4994L34.3853 21.2552L34.7869 21.2549C35.2603 21.2545 35.5571 21.1949 35.8946 21.0326C36.3471 20.8151 36.6938 20.4758 36.9208 20.0286C37.1198 19.6364 37.1563 19.4611 37.1391 18.9808C37.1274 18.6508 37.1113 18.5431 37.0479 18.3696C36.7936 17.6738 36.2878 17.1924 35.5529 16.947L35.31 16.8658L31.9929 16.8577L28.6758 16.8495L28.6752 16.2665C28.6749 15.9459 28.6613 15.5941 28.6451 15.4848C28.5149 14.6085 27.8058 13.8536 26.9024 13.6296C26.6755 13.5734 26.5696 13.5702 24.9895 13.5717C23.4301 13.5732 23.3015 13.5773 23.0892 13.6312ZM26.7175 15.0679C26.8867 15.1574 27.0501 15.3216 27.133 15.4855C27.1983 15.6147 27.204 15.6674 27.2135 16.2377L27.2237 16.851H25.002H22.7802L22.7905 16.2377C22.8002 15.6577 22.8048 15.6163 22.875 15.4766C22.9878 15.2519 23.1816 15.0891 23.423 15.016C23.4648 15.0033 24.1959 14.9953 25.0475 14.9983C26.5746 15.0036 26.5977 15.0045 26.7175 15.0679ZM35.2633 18.3733C35.566 18.5351 35.7096 18.801 35.6814 19.1474C35.6584 19.4292 35.5072 19.6312 35.2189 19.7653L35.0671 19.8359H25.002H14.9369L14.7851 19.7653C14.4871 19.6267 14.3437 19.4284 14.3213 19.1241C14.2913 18.7159 14.5304 18.3947 14.9369 18.2975C14.987 18.2855 19.5436 18.2777 25.0627 18.2802L35.0974 18.2846L35.2633 18.3733ZM32.8962 27.4303C32.8962 34.1255 32.9037 33.8157 32.7327 34.2198C32.4303 34.9344 31.8536 35.4342 31.0593 35.67C30.8854 35.7216 30.608 35.7241 25.002 35.7241C19.396 35.7241 19.1185 35.7216 18.9447 35.67C18.1504 35.4342 17.5737 34.9344 17.2713 34.2198C17.1003 33.8157 17.1078 34.1255 17.1078 27.4303V21.2552H25.002H32.8962V27.4303ZM24.6955 23.9003C24.6188 23.9392 24.5135 24.0182 24.4615 24.0758C24.264 24.2949 24.2733 24.0776 24.2733 28.4823C24.2733 33.0133 24.2557 32.6896 24.5149 32.9342C24.6235 33.0368 24.6988 33.0799 24.8184 33.1078C25.2003 33.197 25.575 33.0089 25.6953 32.6678C25.7454 32.5254 25.7462 24.4603 25.696 24.2974C25.5783 23.9149 25.067 23.7119 24.6955 23.9003ZM20.488 24.6389C20.3131 24.7254 20.1942 24.8584 20.1276 25.042C20.0612 25.2253 20.061 31.7387 20.1274 31.922C20.2758 32.3313 20.7421 32.5153 21.1409 32.3218C21.2281 32.2795 21.333 32.2021 21.3739 32.1498C21.5481 31.9276 21.5407 32.0895 21.5407 28.4857C21.5407 26.4167 21.5295 25.1335 21.511 25.0706C21.4674 24.9225 21.3403 24.7588 21.1973 24.6667C21.0979 24.6027 21.0266 24.583 20.8582 24.5734C20.6735 24.5629 20.624 24.5717 20.488 24.6389ZM28.963 24.5972C28.8289 24.6352 28.6156 24.8246 28.5509 24.9632C28.4976 25.0774 28.495 25.2438 28.4943 28.4758C28.4938 31.2565 28.501 31.8858 28.5346 31.9637C28.7423 32.4463 29.4048 32.5467 29.7627 32.1498C29.9582 31.9331 29.951 32.0721 29.951 28.4823C29.951 24.7768 29.9665 25.0118 29.7074 24.7673C29.5081 24.5792 29.2418 24.5183 28.963 24.5972Z" fill="white"/>
</svg>
